<svg width="200" height="200" viewBox="0 0 200 200" fill="none" xmlns="http://www.w3.org/2000/svg">
  <circle cx="100" cy="100" r="60" fill="#000000" fill-opacity="0.1"/>
  <path d="M100 60C78 60 60 78 60 100s18 40 40 40 40-18 40-40-18-40-40-40zm0 60c-11 0-20-9-20-20s9-20 20-20 20 9 20 20-9 20-20 20z" fill="#000000"/>
  <path d="M100 70c-16.6 0-30 13.4-30 30s13.4 30 30 30 30-13.4 30-30-13.4-30-30-30zm0 40c-5.5 0-10-4.5-10-10s4.5-10 10-10 10 4.5 10 10-4.5 10-10 10z" fill="#000000" fill-opacity="0.2"/>
</svg>